# ProBuilder 5.2.2
# https://unity3d.com/unity/features/worldbuilding/probuilder
# 31/03/2024 17:51:44

mtllib ./PingPong.mtl
o PingPong

g PingPong
v -15 0 -12
v -15 0 -12.5
v -15 1 -12.5
v -15 1 -12
v -5 0 -12.5
v -5 0 -12
v -5 1 -12
v -5 1 -12.5
v -5 0 42.5
v -5.5 0 42.5
v -5.5 1 42.5
v -5 1 42.5
v -5.5 0 -12.5
v -5.5 1 -12.5
v -5.5 4 -12.5
v -5 4 -12.5
v -5 4 -12
v -5.5 4 -12
v -5.5 0 -12
v -14.5 0 42.5
v -14.5 1 42.5
v -15 0 42.5
v -15 1 42.5
v -14.5 1 -12.5
v -14.5 0 -12.5
v -15 4 -12.5
v -14.5 4 -12.5
v -14.5 4 -12
v -15 4 -12
v -14.5 0 -12
v -15 0 42
v -15 1 42
v -5 1 42
v -5 0 42
v -5 4 42
v -5.5 4 42
v -5 4 42.5
v -5.5 4 42.5
v -5.5 0 42
v -14.5 4 42
v -15 4 42
v -14.5 4 42.5
v -15 4 42.5
v -14.5 1 -12
v -5.5 1 -12
v -5.5 1 42
v -14.5 1 42
v -14.5 0 42
v -14.5 3.75 -12.5
v -5.5 3.75 -12.5
v -5 3.75 -12
v -5 3.75 42
v -5.5 3.75 42
v -5.5 3.75 -12
v -5 3.75 42.5
v -5 3.75 -12.5
v -15 3.75 -12
v -15 3.75 -12.5
v -14.5 3.75 -12
v -14.5 3.75 42
v -15 3.75 42
v -5.5 3.75 42.5
v -14.5 3.75 42.5
v -15 3.75 42.5

vt -12 0
vt -12.5 0
vt -12.5 1
vt -12 1
vt 12.5 0
vt 12 0
vt 12 1
vt 12.5 1
vt -5 0
vt -5.5 0
vt -5.5 1
vt -5 1
vt 5.5 0
vt 5 0
vt 5 1
vt 5.5 1
vt 5.5 -12.5
vt 5 -12.5
vt 5 -12
vt 5.5 -12
vt -5.5 -12
vt -5 -12
vt -5 -12.5
vt -5.5 -12.5
vt -14.5 0
vt -14.5 1
vt -15 0
vt -15 1
vt 14.5 1
vt 14.5 0
vt 15 1
vt 15 0
vt 15 -12.5
vt 14.5 -12.5
vt 14.5 -12
vt 15 -12
vt -15 -12.5
vt -15 -12
vt -14.5 -12
vt -14.5 -12.5
vt 42.5 0
vt 42 0
vt 42 1
vt 42.5 1
vt -42.5 0
vt -42.5 1
vt -42 1
vt -42 0
vt 5 42
vt 5.5 42
vt 5 42.5
vt 5.5 42.5
vt -5.5 42
vt -5 42
vt -5.5 42.5
vt -5 42.5
vt 14.5 42
vt 15 42
vt 14.5 42.5
vt 15 42.5
vt -15 42
vt -14.5 42
vt -15 42.5
vt -14.5 42.5
vt 14.5 3.75
vt 5.5 3.75
vt 12 3.75
vt -42 3.75
vt 42 3.75
vt -12 3.75
vt -42.5 3.75
vt 5 3.75
vt 12.5 3.75
vt -12.5 3.75
vt -5.5 3.75
vt -14.5 3.75
vt 15 3.75
vt 42.5 3.75
vt -15 3.75
vt -5 3.75
vt 14.5 4
vt 5.5 4
vt 12 4
vt -42 4
vt 42 4
vt -12 4
vt -42.5 4
vt 5 4
vt 12.5 4
vt -12.5 4
vt -5.5 4
vt -14.5 4
vt 15 4
vt 42.5 4
vt -15 4
vt -5 4

vn -1 0 0
vn 1 0 0
vn 0 0 1
vn 0 0 -1
vn 0 1 0
vn 0 -1 0

usemtl ProBuilderDefault
f 4/4/1 3/3/1 2/2/1 1/1/1
f 5/5/2 8/8/2 7/7/2 6/6/2
f 12/12/3 11/11/3 10/10/3 9/9/3
f 13/13/4 14/16/4 8/15/4 5/14/4
f 18/20/5 17/19/5 16/18/5 15/17/5
f 5/23/6 6/22/6 19/21/6 13/24/6
f 11/11/3 21/26/3 20/25/3 10/10/3
f 21/26/3 23/28/3 22/27/3 20/25/3
f 25/30/4 24/29/4 14/16/4 13/13/4
f 2/32/4 3/31/4 24/29/4 25/30/4
f 29/36/5 28/35/5 27/34/5 26/33/5
f 28/35/5 18/20/5 15/17/5 27/34/5
f 25/40/6 30/39/6 1/38/6 2/37/6
f 13/24/6 19/21/6 30/39/6 25/40/6
f 23/44/1 32/43/1 31/42/1 22/41/1
f 32/43/1 4/4/1 1/1/1 31/42/1
f 34/48/2 33/47/2 12/46/2 9/45/2
f 6/6/2 7/7/2 33/47/2 34/48/2
f 36/50/5 35/49/5 17/19/5 18/20/5
f 38/52/5 37/51/5 35/49/5 36/50/5
f 6/22/6 34/54/6 39/53/6 19/21/6
f 34/54/6 9/56/6 10/55/6 39/53/6
f 41/58/5 40/57/5 28/35/5 29/36/5
f 43/60/5 42/59/5 40/57/5 41/58/5
f 47/57/5 46/50/5 45/20/5 44/35/5
f 42/59/5 38/52/5 36/50/5 40/57/5
f 30/39/6 48/62/6 31/61/6 1/38/6
f 48/62/6 20/64/6 22/63/6 31/61/6
f 19/21/6 39/53/6 48/62/6 30/39/6
f 39/53/6 10/55/6 20/64/6 48/62/6
f 49/65/4 50/66/4 14/16/4 24/29/4
f 51/67/2 52/68/2 33/47/2 7/7/2
f 53/69/1 54/70/1 45/4/1 46/43/1
f 52/68/2 55/71/2 12/46/2 33/47/2
f 50/66/4 56/72/4 8/15/4 14/16/4
f 56/73/2 51/67/2 7/7/2 8/8/2
f 57/70/1 58/74/1 3/3/1 4/4/1
f 54/75/3 59/76/3 44/26/3 45/11/3
f 58/77/4 49/65/4 24/29/4 3/31/4
f 59/67/2 60/68/2 47/47/2 44/7/2
f 61/69/1 57/70/1 4/4/1 32/43/1
f 62/75/3 63/76/3 21/26/3 11/11/3
f 64/78/1 61/69/1 32/43/1 23/44/1
f 63/76/3 64/79/3 23/28/3 21/26/3
f 60/65/4 53/66/4 46/16/4 47/29/4
f 55/80/3 62/75/3 11/11/3 12/12/3
f 27/81/4 15/82/4 50/66/4 49/65/4
f 17/83/2 35/84/2 52/68/2 51/67/2
f 36/85/1 18/86/1 54/70/1 53/69/1
f 35/84/2 37/87/2 55/71/2 52/68/2
f 15/82/4 16/88/4 56/72/4 50/66/4
f 16/89/2 17/83/2 51/67/2 56/73/2
f 29/86/1 26/90/1 58/74/1 57/70/1
f 18/91/3 28/92/3 59/76/3 54/75/3
f 26/93/4 27/81/4 49/65/4 58/77/4
f 28/83/2 40/84/2 60/68/2 59/67/2
f 41/85/1 29/86/1 57/70/1 61/69/1
f 38/91/3 42/92/3 63/76/3 62/75/3
f 43/94/1 41/85/1 61/69/1 64/78/1
f 42/92/3 43/95/3 64/79/3 63/76/3
f 40/81/4 36/82/4 53/66/4 60/65/4
f 37/96/3 38/91/3 62/75/3 55/80/3

