# ProBuilder 5.2.2
# https://unity3d.com/unity/features/worldbuilding/probuilder
# 29/03/2024 16:59:25

mtllib ./Cube_(2).mtl
o Cube (2)

g Cube (2)
v 0 0 1
v -5 0 0.9999999
v 0 1 1
v -5 1 0.9999999
v -6 0 0.9999999
v -6 0 0
v -6 1 0.9999999
v -6 1 0
v -5 0 0
v 0 0 0
v -5 1 0
v 0 1 0
v 0 1.5 0.9999999
v -5 1.5 0.9999999
v 0 1.5 0
v -5 1.5 0
v -5 1 16
v -5 0 16
v -6 1 16
v -6 0 16
v -6 1.5 0
v -6 1.5 0.9999999
v -5 1 8
v -5 0 8
v -6 1.5 8
v -5 1.5 8
v -6 0 8
v -6 1 8
v -5 1 15
v -5 0 15
v -6 1.5 12
v -5 1.5 12
v -6 0 12
v -6 1 12
v -3.25 1 15
v -3.25 0 15
v -3.25 1 16
v -3.25 0 16
v -6 1.5 16
v -5 1.5 16
v -5 1 12
v -5 1.5 15
v -3.25 1.5 16
v -3.25 1.5 15

vt 2.384186E-08 0
vt -5 0
vt 2.384186E-08 1
vt -5 1
vt 0.9999999 0
vt 0.9999999 1
vt 5 0
vt 5 1
vt -1 0
vt -1 1
vt 0 0.9999999
vt 5 0.9999999
vt -5 0.9999999
vt -6 0.9999999
vt -6 0
vt -6 1
vt 6 0
vt 6 1
vt 6 0.9999999
vt -0.9999999 1
vt -0.9999999 0
vt -8 1
vt -8 0
vt 6 8
vt 5 8
vt -5 8
vt -6 8
vt 8 0
vt 8 1
vt -15 1
vt -15 0
vt 6 12
vt 5 12
vt -5 15
vt -6 12
vt 12 0
vt 12 1
vt -16 1
vt -16 0
vt 6 16
vt 5 16
vt -5 16
vt -6 16
vt 16 0
vt 16 1
vt 2.384185E-08 1.5
vt -5 1.5
vt 0 1.5
vt -0.9999999 1.5
vt 0.9999999 1.5
vt 5 1.5
vt 6 1.5
vt -5 1.5
vt -6 1.5
vt 8 1.5
vt -8 1.5
vt 5 15
vt 3.25 1
vt 3.25 0
vt 3.25 16
vt 3.25 15
vt -3.25 15
vt -3.25 16
vt -3.25 0
vt -3.25 1
vt 15 1
vt 16 1.5
vt 15 1.5
vt -3.25 1.5
vt 3.25 1.5
vt -15 1.5
vt -16 1.5
vt 12 1.5
vt -12 1
vt -12 1.5

vn -2.384186E-08 0 1
vn -1 0 0
vn 0 0 -1
vn 1 0 0
vn 0 1 0
vn 0 -1 0
vn 0 0 0
vn 0 0.5 0
vn 0 -0.5 0

usemtl ProBuilderDefault
f 3/3/1 4/4/1 2/2/1 1/1/1
f 7/6/2 8/3/2 6/1/2 5/5/2
f 11/8/3 12/3/3 10/1/3 9/7/3
f 12/3/4 3/10/4 1/9/4 10/1/4
f 15/1/5 16/7/5 14/12/5 13/11/5
f 1/3/6 2/13/6 9/2/6 10/1/6
f 5/14/6 6/15/6 9/2/6 2/13/6
f 19/16/1 20/15/1 18/2/1 17/4/1
f 6/17/3 8/18/3 11/8/3 9/7/3
f 21/17/5 22/19/5 14/12/5 16/7/5
f 23/22/4 24/23/4 2/21/4 4/20/4
f 25/24/5 26/25/5 14/12/5 22/19/5
f 24/26/6 27/27/6 5/14/6 2/13/6
f 27/28/2 28/29/2 7/6/2 5/5/2
f 29/30/4 30/31/4 24/23/4 23/22/4
f 31/32/5 32/33/5 26/25/5 25/24/5
f 30/34/6 33/35/6 27/27/6 24/26/6
f 33/36/2 34/37/2 28/29/2 27/28/2
f 37/38/4 38/39/4 36/31/4 35/30/4
f 39/40/5 40/41/5 32/33/5 31/32/5
f 18/42/6 20/43/6 33/35/6 30/34/6
f 20/44/2 19/45/2 34/37/2 33/36/2
f 17/41/7 18/41/7 18/41/7 17/41/7
f 19/40/7 17/41/7 17/41/7 19/40/7
f 18/41/7 20/40/7 20/40/7 18/41/7
f 20/40/7 19/40/7 19/40/7 20/40/7
f 13/46/1 14/47/1 4/13/1 3/11/1
f 15/48/4 13/49/4 3/10/4 12/3/4
f 14/50/2 16/48/2 11/3/2 4/6/2
f 16/51/3 15/48/3 12/3/3 11/8/3
f 16/48/4 14/49/4 4/20/4 11/3/4
f 21/52/3 16/51/3 11/8/3 8/18/3
f 14/53/1 22/54/1 7/16/1 4/4/1
f 22/50/2 21/48/2 8/3/2 7/6/2
f 22/52/3 14/51/3 4/8/3 7/18/3
f 25/55/2 22/50/2 7/6/2 28/29/2
f 14/49/4 26/56/4 23/22/4 4/20/4
f 26/53/1 25/54/1 28/16/1 23/4/1
f 28/24/7 23/25/7 23/25/7 28/24/7
f 34/32/7 28/24/7 28/24/7 34/32/7
f 23/25/7 41/33/7 29/57/7 23/25/7
f 41/33/8 34/32/7 34/32/8 29/57/5
f 34/32/9 41/33/6 29/57/9 34/32/7
f 19/40/7 34/32/7 34/32/7 19/40/7
f 41/33/7 17/41/7 17/41/7 29/57/7
f 17/41/7 19/40/7 19/40/7 17/41/7
f 34/32/7 41/33/7 41/33/7 34/32/7
f 19/40/7 34/32/7 34/32/7 19/40/7
f 41/33/7 17/41/7 17/41/7 41/33/7
f 17/41/7 19/40/7 19/40/7 17/41/7
f 35/58/3 36/59/3 30/7/3 29/8/3
f 43/60/5 44/61/5 42/57/5 40/41/5
f 36/62/6 38/63/6 18/42/6 30/34/6
f 38/64/1 37/65/1 17/4/1 18/2/1
f 40/67/2 42/68/2 29/66/2 17/45/2
f 43/69/1 40/53/1 17/4/1 37/65/1
f 42/51/3 44/70/3 35/58/3 29/8/3
f 44/71/4 43/72/4 37/38/4 35/30/4
f 31/52/3 32/51/3 41/8/3 34/18/3
f 39/67/2 31/73/2 34/37/2 19/45/2
f 32/75/4 40/72/4 17/38/4 41/74/4
f 40/53/1 39/54/1 19/16/1 17/4/1
f 25/52/3 26/51/3 23/8/3 28/18/3
f 31/73/2 25/55/2 28/29/2 34/37/2
f 26/56/4 32/75/4 41/74/4 23/22/4
f 32/53/1 31/54/1 34/16/1 41/4/1

