# ProBuilder 5.2.2
# https://unity3d.com/unity/features/worldbuilding/probuilder
# 29/03/2024 16:59:25

mtllib ./Cube_(1).mtl
o Cube (1)

g Cube (1)
v 9 0 19
v -1 0 19
v 9 1 19
v -1 1 19
v -1 0 15
v -1 0 0
v -1 1 15
v -1 1 0
v 9 0 -2.384186E-07
v 9 1 -2.384186E-07
v 9 0 15
v 9 1 15
v 23 1 15
v 23 0 15
v 23 1 19
v 23 0 19
v 17 1 15
v 17 0 15
v 17 1 19
v 17 0 19
v 17 1 10
v 17 0 10
v 23 1 10
v 23 0 10
v 16 1 15
v 16 0 15
v 16 1 12
v 16 0 12
v 23 1 12
v 17 1 12
v 17 0 12
v 23 0 12
v 16 0 10
v 16 1 10
v 17 1 11
v 17 0 11
v 23 1 11
v 23 0 11
v 16 0 11
v 16 1 11
v 23 6 11
v 17 6 11
v 23 6 10
v 17 6 10
v 16 6 11
v 16 6 10
v 23 4.5 11
v 17 4.5 11
v 23 4.5 10
v 17 4.5 10
v 23 5 11
v 17 5 11
v 23 5 10
v 17 5 10
v 16 5 11
v 16 5 10

vt 9 0
vt -1 0
vt 9 1
vt -1 1
vt 15 0
vt 0 0
vt 15 1
vt 0 1
vt 1 0
vt -9 0
vt 1 1
vt -9 1
vt -15 0
vt -15 1
vt -9 15
vt 1 15
vt 9 15
vt -1 15
vt 9 19
vt -1 19
vt -19 1
vt -19 0
vt 19 0
vt 19 1
vt 1 19
vt -9 19
vt -17 1
vt -17 0
vt -17 19
vt -17 15
vt 17 15
vt 17 19
vt 17 0
vt 17 1
vt -23 1
vt -23 0
vt -23 19
vt -23 15
vt 23 15
vt 23 19
vt 23 0
vt 23 1
vt 12 1
vt 12 0
vt -23 12
vt -17 12
vt 17 12
vt 23 12
vt -12 0
vt -12 1
vt 16 1
vt 16 0
vt -16 12
vt -16 15
vt 16 15
vt 16 12
vt -16 0
vt -16 1
vt 11 1
vt 11 0
vt -23 11
vt -17 11
vt 17 11
vt 23 11
vt -11 0
vt -11 1
vt 16 11
vt -16 11
vt 10 1
vt 10 0
vt -23 10
vt -17 10
vt 17 10
vt 23 10
vt -10 0
vt -10 1
vt 16 10
vt -16 10
vt 23 4.5
vt 17 4.5
vt -10 4.5
vt -11 4.5
vt 11 4.5
vt 10 4.5
vt -17 4.5
vt -23 4.5
vt 23 5
vt 17 5
vt -10 5
vt -11 5
vt 11 5
vt 10 5
vt -17 5
vt -23 5
vt 16 5
vt -16 5
vt 23 6
vt 17 6
vt -10 6
vt -11 6
vt 11 6
vt 10 6
vt -17 6
vt -23 6
vt 16 6
vt -16 6

vn 0 0 1
vn -1 0 0
vn -2.384186E-08 0 -1
vn 1 0 0
vn 0 1 0
vn 0 -1 0

usemtl ProBuilderDefault
f 3/3/1 4/4/1 2/2/1 1/1/1
f 7/7/2 8/8/2 6/6/2 5/5/2
f 8/11/3 10/12/3 9/10/3 6/9/3
f 10/8/4 12/14/4 11/13/4 9/6/4
f 10/10/5 8/9/5 7/16/5 12/15/5
f 11/17/6 5/18/6 6/2/6 9/1/6
f 1/19/6 2/20/6 5/18/6 11/17/6
f 15/21/4 16/22/4 14/13/4 13/14/4
f 2/23/2 4/24/2 7/7/2 5/5/2
f 4/25/5 3/26/5 12/15/5 7/16/5
f 17/27/3 18/28/3 11/10/3 12/12/3
f 19/29/5 17/30/5 12/15/5 3/26/5
f 18/31/6 20/32/6 1/19/6 11/17/6
f 20/33/1 19/34/1 3/3/1 1/1/1
f 23/35/3 24/36/3 22/28/3 21/27/3
f 15/37/5 13/38/5 17/30/5 19/29/5
f 14/39/6 16/40/6 20/32/6 18/31/6
f 16/41/1 15/42/1 19/34/1 20/33/1
f 27/43/2 28/44/2 26/5/2 25/7/2
f 29/45/5 30/46/5 17/30/5 13/38/5
f 31/47/6 32/48/6 14/39/6 18/31/6
f 32/49/4 29/50/4 13/14/4 14/13/4
f 25/51/1 26/52/1 18/33/1 17/34/1
f 27/53/5 25/54/5 17/30/5 30/46/5
f 26/55/6 28/56/6 31/47/6 18/31/6
f 33/57/3 34/58/3 21/27/3 22/28/3
f 35/59/2 36/60/2 31/44/2 30/43/2
f 37/61/5 35/62/5 30/46/5 29/45/5
f 36/63/6 38/64/6 32/48/6 31/47/6
f 38/65/4 37/66/4 29/50/4 32/49/4
f 36/65/4 35/66/4 30/50/4 31/49/4
f 39/67/6 36/63/6 31/47/6 28/56/6
f 35/62/5 40/68/5 27/53/5 30/46/5
f 40/59/2 39/60/2 28/44/2 27/43/2
f 21/69/2 22/70/2 36/60/2 35/59/2
f 43/71/5 44/72/5 42/62/5 41/61/5
f 22/73/6 24/74/6 38/64/6 36/63/6
f 24/75/4 23/76/4 37/66/4 38/65/4
f 22/75/4 21/76/4 35/66/4 36/65/4
f 33/77/6 22/73/6 36/63/6 39/67/6
f 44/72/5 46/78/5 45/68/5 42/62/5
f 34/69/2 33/70/2 39/60/2 40/59/2
f 47/79/1 48/80/1 35/34/1 37/42/1
f 49/81/4 47/82/4 37/66/4 23/76/4
f 48/83/2 50/84/2 21/69/2 35/59/2
f 50/85/3 49/86/3 23/35/3 21/27/3
f 51/87/1 52/88/1 48/80/1 47/79/1
f 53/89/4 51/90/4 47/82/4 49/81/4
f 52/91/2 54/92/2 50/84/2 48/83/2
f 54/93/3 53/94/3 49/86/3 50/85/3
f 52/88/1 55/95/1 40/51/1 35/34/1
f 54/89/4 52/90/4 35/66/4 21/76/4
f 55/91/2 56/92/2 34/69/2 40/59/2
f 56/96/3 54/93/3 21/27/3 34/58/3
f 41/97/1 42/98/1 52/88/1 51/87/1
f 43/99/4 41/100/4 51/90/4 53/89/4
f 42/101/2 44/102/2 54/92/2 52/91/2
f 44/103/3 43/104/3 53/94/3 54/93/3
f 42/98/1 45/105/1 55/95/1 52/88/1
f 44/99/4 42/100/4 52/90/4 54/89/4
f 45/101/2 46/102/2 56/92/2 55/91/2
f 46/106/3 44/103/3 54/93/3 56/96/3

