# ProBuilder 5.2.2
# https://unity3d.com/unity/features/worldbuilding/probuilder
# 29/03/2024 16:59:25

mtllib ./Cube_(4).mtl
o Cube (4)

g Cube (4)
v -33 1 -131
v -33 0 -131
v -33 1 -174
v -33 0 -174
v -13 0 -131
v -13 1 -131
v -29 0 -131
v -29 1 -131
v -13 1 -174
v -13 0 -174
v -13 0 -175
v -13 1 -175
v -33 0 -175
v -33 1 -175

vt -131 1
vt -131 0
vt -174 1
vt -174 0
vt 13 0
vt 13 1
vt 29 0
vt 29 1
vt 13 -174
vt 13 -131
vt 33 -174
vt 33 -131
vt -13 -131
vt -13 -174
vt -33 -131
vt -33 -174
vt 33 0
vt 33 1
vt 174 0
vt 174 1
vt 175 0
vt 175 1
vt -33 -175
vt -13 -175
vt 13 -175
vt 33 -175
vt -175 1
vt -175 0

vn -1 0 0
vn 0 0 -1
vn 0 1 0
vn 0 -1 0
vn 1 0 0
vn 0 0 0

usemtl ProBuilderDefault
f 3/3/1 4/4/1 2/2/1 1/1/1
f 7/7/2 8/8/2 6/6/2 5/5/2
f 3/11/3 1/12/3 6/10/3 9/9/3
f 2/15/4 4/16/4 10/14/4 5/13/4
f 13/17/2 14/18/2 12/6/2 11/5/2
f 2/17/2 1/18/2 8/8/2 7/7/2
f 11/21/5 12/22/5 9/20/5 10/19/5
f 13/23/4 11/24/4 10/14/4 4/16/4
f 12/25/3 14/26/3 3/11/3 9/9/3
f 14/27/1 13/28/1 4/4/1 3/3/1
f 9/9/6 3/11/6 3/11/6 9/9/6
f 12/25/6 9/9/6 9/9/6 12/25/6
f 3/11/6 14/26/6 14/26/6 3/11/6
f 14/26/6 12/25/6 12/25/6 14/26/6

