# ProBuilder 5.2.2
# https://unity3d.com/unity/features/worldbuilding/probuilder
# 29/03/2024 17:03:29

mtllib ./LaderaSub.mtl
o LaderaSub

g LaderaSub
v 0 0 12
v -0.2999992 0 12
v 0 6 12
v -0.2999992 6 12
v -0.2999992 0 4.5
v -0.2999996 0 0
v -0.2999992 6 4.5
v -0.2999992 1.5 0
v 3.874302E-07 0 0
v 0 1.5 0
v 0 0 4.5
v 0 6 4.5
v 0 0 7.25
v -0.2999992 0 7.25
v 0 6 10.75
v -0.2999992 6 10.75
v -0.2999992 10.5 10.69945
v 0 10.5 10.69945
v -0.2999992 10.5 11.94945
v 0 10.5 11.94945
v -0.2999992 6 7.25
v 0 6 7.25
v -0.2999992 6 6.5
v 0 6 6.5

vt 0 0
vt -0.2999992 0
vt 0 6
vt -0.2999992 6
vt 4.5 0
vt 4.5 6
vt -2.582861E-08 1.5
vt 0.2999996 0
vt 0.2999992 1.5
vt -4.5 -1.000681E-13
vt -4.5 6
vt 0 7.424622
vt 0.2999992 7.424622
vt 0 1.06066
vt 0.2999992 1.06066
vt 0 4.5
vt -0.2999992 4.5
vt 0 7.25
vt -0.2999992 7.25
vt -10.75 6
vt -7.25 0
vt 7.25 0
vt 10.75 6
vt 0.2999992 4.5
vt 0.2999992 10.75
vt 0 10.75
vt 0 12
vt -0.2999992 12
vt -12 6
vt -12 0
vt 12 0
vt 12 6
vt 0.2999992 10.69945
vt 0 10.69945
vt 0.2999992 11.94945
vt 0 11.94945
vt -0.2999992 6.5
vt 0 6.5
vt 11.94945 10.5
vt 10.69945 10.5
vt -10.69945 10.5
vt -11.94945 10.5
vt 0 5.864819
vt -0.2999992 5.864819
vt 0 10.3651
vt -0.2999992 10.3651
vt -0.2999992 10.75
vt 6.5 6
vt 7.25 6
vt -7.25 6
vt -6.5 6
vt 0 14.97646
vt 0.2999992 14.97646
vt 0 8.821357
vt 0.2999992 8.821357

vn 0 0 1
vn -1 0 8.60956E-08
vn 0 0 -1
vn 1 2.582868E-07 8.60956E-08
vn 0 0.7071068 -0.7071068
vn 0 -1 0
vn 0 1 0
vn 0 0.01123357 0.9999369
vn -0.5 0 0
vn 0 0 0
vn 0 0.6822701 -0.7311002

usemtl ProBuilderDefault
f 3/3/1 4/4/1 2/2/1 1/1/1
f 7/6/2 8/7/2 6/1/2 5/5/2
f 8/9/3 10/7/3 9/1/3 6/8/3
f 10/7/4 12/11/4 11/10/4 9/1/4
f 10/14/5 8/15/5 7/13/5 12/12/5
f 11/16/6 5/17/6 6/2/6 9/1/6
f 13/18/6 14/19/6 5/17/6 11/16/6
f 15/20/4 13/21/4 11/10/4 12/11/4
f 14/22/2 16/23/2 7/6/2 5/5/2
f 16/25/7 15/26/7 12/16/7 7/24/7
f 1/27/6 2/28/6 14/19/6 13/18/6
f 3/29/4 1/30/4 13/21/4 15/20/4
f 2/31/2 4/32/2 16/23/2 14/22/2
f 19/35/7 20/36/7 18/34/7 17/33/7
f 23/37/6 24/38/6 22/18/6 21/19/6
f 19/39/2 17/40/2 16/23/2 4/32/2
f 18/41/4 20/42/4 3/29/4 15/20/4
f 20/45/8 19/46/8 4/44/8 3/43/8
f 21/19/6 22/18/6 15/26/6 16/47/6
f 23/48/9 21/49/10 16/23/9 17/40/2
f 22/50/4 24/51/4 18/41/4 15/20/4
f 24/54/11 23/55/11 17/53/11 18/52/11

