# ProBuilder 5.2.2
# https://unity3d.com/unity/features/worldbuilding/probuilder
# 29/03/2024 17:03:29

mtllib ./LaderaGrande.mtl
o LaderaGrande

g LaderaGrande
v 0 0 6
v -0.3 0 6
v -3.72529E-09 1.5 6
v -0.3 1.5 6
v -0.3 0 0
v -0.3 6 0
v -0.3 0 -15
v 0 0 -15
v -0.3 6 -15
v 0 6 -15
v 0 0 0
v 0 6 0
v -0.3 0 -3.75
v -3.72529E-09 0 -3.75
v -0.3 6 -3.75
v -3.72529E-09 6 -3.75
v -0.3 0 -7.75
v -3.72529E-09 0 -7.75
v -0.3 6 -7.75
v -3.72529E-09 6 -7.75
v -3.72529E-09 6 -3
v -0.3 6 -3
v -3.72529E-09 10.5 -8
v -0.3 10.5 -8
v -0.3 6 -9
v -3.72529E-09 6 -9
v -0.3 10.5 -9
v -3.72529E-09 10.5 -9
v -0.3 0 -9
v -3.72529E-09 0 -9
v 0 8 -9
v -0.3 8 -9
v 0 8 -15
v -0.3 8 -15

vt 0 0
vt -0.3 0
vt -3.72529E-09 1.5
vt -0.3 1.5
vt 6 0
vt 6 1.5
vt 0 6
vt 0.3 0
vt 0.3 6
vt -6 0
vt -6 1.5
vt 3.72529E-09 3.9
vt 0.3 3.9
vt 0 -3.6
vt 0.3 -3.6
vt -0.3 6
vt -0.3 -3.75
vt -3.72529E-09 -3.75
vt -3.75 6
vt -3.75 0
vt 3.75 0
vt 3.75 6
vt 0.3 -3.75
vt -0.3 -7.75
vt -3.72529E-09 -7.75
vt -7.75 6
vt -7.75 0
vt 7.75 0
vt 7.75 6
vt 3.72529E-09 -6.24367
vt 0.3 -6.24367
vt 3.72529E-09 -12.97048
vt 0.3 -12.97048
vt -3.72529E-09 -3.000004
vt -0.3 -3.000004
vt 8 10.5
vt 3 6
vt 0.3 -7.75
vt 0.3 -3
vt 0.3 -8
vt 0.3 10.5
vt 3.72529E-09 10.5
vt -0.3 -9
vt -3.72529E-09 -9
vt -9 6
vt -9 0
vt 9 0
vt 9 6
vt 0.3 -9
vt -8 10.5
vt -9 10.5
vt 9 10.5
vt 3.72529E-09 -8
vt -0.3 -15
vt 0 -15
vt -15 6
vt -15 0
vt 15 0
vt 15 6
vt 0.3 -15
vt 0 8
vt -0.3 8
vt 15 8
vt 9 8
vt -9 8
vt -15 8
vt 0.3 8

vn 0 0 1
vn -1 0 0
vn 0 0 -1
vn 1 0 0
vn 0 0.8 0.6
vn 0 -1 0
vn 0 1 0
vn 0 0.7432941 0.6689647
vn 0 0 0
vn -0.5 0 0

usemtl ProBuilderDefault
f 3/3/1 4/4/1 2/2/1 1/1/1
f 4/6/2 6/7/2 5/1/2 2/5/2
f 9/9/3 10/7/3 8/1/3 7/8/3
f 12/7/4 3/11/4 1/10/4 11/1/4
f 12/14/5 6/15/5 4/13/5 3/12/5
f 1/7/6 2/16/6 5/2/6 11/1/6
f 13/17/6 14/18/6 11/1/6 5/2/6
f 15/19/2 13/20/2 5/1/2 6/7/2
f 14/21/4 16/22/4 12/7/4 11/1/4
f 16/18/7 15/23/7 6/8/7 12/1/7
f 17/24/6 18/25/6 14/18/6 13/17/6
f 19/26/2 17/27/2 13/20/2 15/19/2
f 18/28/4 20/29/4 16/22/4 14/21/4
f 23/32/8 24/33/8 22/31/8 21/30/8
f 21/34/6 22/35/6 15/17/6 16/18/6
f 23/36/4 21/37/4 16/22/4 20/29/4
f 22/39/10 24/40/2 19/38/10 15/23/9
f 27/41/3 28/42/3 26/7/3 25/9/3
f 29/43/6 30/44/6 18/25/6 17/24/6
f 25/45/2 29/46/2 17/27/2 19/26/2
f 30/47/4 26/48/4 20/29/4 18/28/4
f 26/44/7 25/49/7 19/38/7 20/25/7
f 25/43/6 26/44/6 20/25/6 19/24/6
f 27/51/2 25/45/2 19/26/2 24/50/2
f 26/48/4 28/52/4 23/36/4 20/29/4
f 28/44/7 27/49/7 24/40/7 23/53/7
f 7/54/6 8/55/6 30/44/6 29/43/6
f 9/56/2 7/57/2 29/46/2 25/45/2
f 8/58/4 10/59/4 26/48/4 30/47/4
f 33/55/7 34/60/7 32/49/7 31/44/7
f 31/61/1 32/62/1 25/16/1 26/7/1
f 33/63/4 31/64/4 26/48/4 10/59/4
f 32/65/2 34/66/2 9/56/2 25/45/2
f 34/67/3 33/61/3 10/7/3 9/9/3

